<svg width="74" height="24" viewBox="0 0 74 24" fill="none" xmlns="http://www.w3.org/2000/svg">
<path d="M58.6064 6.44922H62.4718V9.80684L61.4855 9.11431H58.6064V6.44922Z" fill="#FF7500"/>
<path d="M71.2919 0H55.0993C53.7435 0 52.6416 1.10193 52.6416 2.46039V23.4648C52.6416 23.8768 53.0869 24.1334 53.4431 23.9273L57.1875 21.7647C57.9266 21.338 58.7667 21.112 59.6227 21.112H71.2933C72.6531 21.112 73.7537 20.0115 73.7537 18.653V2.46039C73.7537 1.10193 72.6517 0 71.2919 0ZM66.7048 16.0796L65.5125 17.2693H56.1282L55.102 16.2431V14.0579H61.9143L62.6201 13.4318V11.8899H55.102V5.1308L56.4232 3.81487H65.5683L66.7048 4.95003V16.0796ZM71.2906 17.2693H68.9578L67.7934 16.1049V4.92477L68.9073 3.81354H71.2906V17.2693Z" fill="#FF7500"/>
<path d="M0 3.78027V17.3025H3.54504V3.78027H0Z" fill="white"/>
<path d="M16.3685 3.77979V12.7946L8.80127 3.77979H5.7959V17.302H8.7069V8.24863L16.314 17.302H19.3181V3.77979H16.3685Z" fill="white"/>
<path d="M34.4747 6.70939V3.77979H21.9854V17.302H24.9349V12.0063H32.6165V9.07541H24.9349V6.70939H34.4747Z" fill="white"/>
<path d="M49.9028 5.47091C49.7593 5.13329 49.5586 4.8382 49.302 4.58698C49.0455 4.33708 48.7491 4.14036 48.4101 3.99547C48.0725 3.85192 47.7149 3.77881 47.3388 3.77881H39.3767C38.9899 3.77881 38.6257 3.85192 38.2881 3.99547C37.9505 4.13903 37.6554 4.33708 37.4068 4.58698C37.1556 4.8382 36.9575 5.13196 36.814 5.47091C36.6704 5.80853 36.5986 6.17274 36.5986 6.55955V14.5216C36.5986 14.9097 36.6691 15.2726 36.814 15.6102C36.9575 15.9478 37.1556 16.2429 37.4068 16.4942C37.6567 16.7441 37.9505 16.9408 38.2881 17.0857C38.6257 17.2292 38.9899 17.3023 39.3767 17.3023H47.3388C47.7149 17.3023 48.0725 17.2292 48.4101 17.0857C48.7477 16.9421 49.0455 16.7441 49.302 16.4942C49.5586 16.2429 49.7593 15.9492 49.9028 15.6102C50.0464 15.2726 50.1195 14.9097 50.1195 14.5216V6.55955C50.1195 6.17274 50.0477 5.80986 49.9028 5.47091ZM47.1713 14.3727H39.511V6.70975H47.1713V14.3727Z" fill="white"/>
</svg>
